<mxfile host="app.diagrams.net" modified="2024-03-19T15:49:29.278Z" agent="Mozilla/5.0 (Windows NT 10.0; Win64; x64) AppleWebKit/537.36 (KHTML, like Gecko) Chrome/122.0.0.0 Safari/537.36 Edg/122.0.0.0" version="24.0.7" etag="k_bnHneg5lsXX3rWO__7" type="github">
  <diagram name="Page-1" id="oV1Fuwb7MrvapbLkFMkj">
    <mxGraphModel>
      <root>
        <mxCell id="0" />
        <mxCell id="1" parent="0" />
      </root>
    </mxGraphModel>
  </diagram>
</mxfile>
